<mxfile>
    <diagram id="B9imWvU3-mCyOA17thxm" name="Page-1">
        <mxGraphModel dx="202" dy="804" grid="1" gridSize="10" guides="1" tooltips="1" connect="1" arrows="1" fold="1" page="1" pageScale="1" pageWidth="850" pageHeight="1100" math="0" shadow="0">
            <root>
                <mxCell id="0"/>
                <mxCell id="1" parent="0"/>
                <mxCell id="118" value="" style="rounded=0;whiteSpace=wrap;html=1;dashed=1;labelBackgroundColor=none;fontColor=#000000;fillColor=none;strokeWidth=4;" vertex="1" parent="1">
                    <mxGeometry x="880" y="40" width="1080" height="440" as="geometry"/>
                </mxCell>
                <mxCell id="119" style="edgeStyle=orthogonalEdgeStyle;rounded=0;orthogonalLoop=1;jettySize=auto;html=1;fontColor=#000000;" edge="1" parent="1" source="120" target="124">
                    <mxGeometry relative="1" as="geometry"/>
                </mxCell>
                <mxCell id="120" value="" style="strokeWidth=1;shadow=0;dashed=0;align=center;html=1;shape=mxgraph.mockup.containers.browserWindow;rSize=0;strokeColor=#666666;strokeColor2=#008cff;strokeColor3=#c4c4c4;mainText=,;recursiveResize=0;labelBackgroundColor=#FFFFFF;fontColor=#000000;" vertex="1" parent="1">
                    <mxGeometry x="920" y="80" width="300" height="330" as="geometry"/>
                </mxCell>
                <mxCell id="121" value="Page A" style="strokeWidth=1;shadow=0;dashed=0;align=center;html=1;shape=mxgraph.mockup.containers.anchor;fontSize=17;fontColor=#666666;align=left;" vertex="1" parent="120">
                    <mxGeometry x="60" y="12" width="110" height="26" as="geometry"/>
                </mxCell>
                <mxCell id="122" value="https://www.draw.io" style="strokeWidth=1;shadow=0;dashed=0;align=center;html=1;shape=mxgraph.mockup.containers.anchor;rSize=0;fontSize=17;fontColor=#666666;align=left;" vertex="1" parent="120">
                    <mxGeometry x="130" y="60" width="250" height="26" as="geometry"/>
                </mxCell>
                <mxCell id="130" value="&lt;font&gt;&lt;font style=&quot;font-size: 28px&quot;&gt;Team A&lt;/font&gt;&lt;br&gt;&lt;/font&gt;" style="text;html=1;fillColor=none;align=center;verticalAlign=middle;whiteSpace=wrap;rounded=0;labelBackgroundColor=none;fontColor=#000000;strokeColor=#f0f0f0;strokeWidth=4;" vertex="1" parent="120">
                    <mxGeometry x="100" y="170" width="100" height="100" as="geometry"/>
                </mxCell>
                <mxCell id="123" style="edgeStyle=orthogonalEdgeStyle;rounded=0;orthogonalLoop=1;jettySize=auto;html=1;fontColor=#000000;" edge="1" parent="1" source="124" target="127">
                    <mxGeometry relative="1" as="geometry"/>
                </mxCell>
                <mxCell id="124" value="" style="strokeWidth=1;shadow=0;dashed=0;align=center;html=1;shape=mxgraph.mockup.containers.browserWindow;rSize=0;strokeColor=#666666;strokeColor2=#008cff;strokeColor3=#c4c4c4;mainText=,;recursiveResize=0;labelBackgroundColor=#FFFFFF;fontColor=#000000;" vertex="1" parent="1">
                    <mxGeometry x="1270" y="80" width="300" height="330" as="geometry"/>
                </mxCell>
                <mxCell id="125" value="Page B" style="strokeWidth=1;shadow=0;dashed=0;align=center;html=1;shape=mxgraph.mockup.containers.anchor;fontSize=17;fontColor=#666666;align=left;" vertex="1" parent="124">
                    <mxGeometry x="60" y="12" width="110" height="26" as="geometry"/>
                </mxCell>
                <mxCell id="126" value="https://www.draw.io" style="strokeWidth=1;shadow=0;dashed=0;align=center;html=1;shape=mxgraph.mockup.containers.anchor;rSize=0;fontSize=17;fontColor=#666666;align=left;" vertex="1" parent="124">
                    <mxGeometry x="130" y="60" width="250" height="26" as="geometry"/>
                </mxCell>
                <mxCell id="150" value="&lt;font&gt;&lt;font style=&quot;font-size: 28px&quot;&gt;Team B&lt;/font&gt;&lt;br&gt;&lt;/font&gt;" style="text;html=1;fillColor=none;align=center;verticalAlign=middle;whiteSpace=wrap;rounded=0;labelBackgroundColor=none;fontColor=#000000;strokeColor=#f0f0f0;strokeWidth=4;" vertex="1" parent="124">
                    <mxGeometry x="100" y="170" width="100" height="100" as="geometry"/>
                </mxCell>
                <mxCell id="127" value="" style="strokeWidth=1;shadow=0;dashed=0;align=center;html=1;shape=mxgraph.mockup.containers.browserWindow;rSize=0;strokeColor=#666666;strokeColor2=#008cff;strokeColor3=#c4c4c4;mainText=,;recursiveResize=0;labelBackgroundColor=#FFFFFF;fontColor=#000000;" vertex="1" parent="1">
                    <mxGeometry x="1620" y="80" width="300" height="330" as="geometry"/>
                </mxCell>
                <mxCell id="128" value="Page C" style="strokeWidth=1;shadow=0;dashed=0;align=center;html=1;shape=mxgraph.mockup.containers.anchor;fontSize=17;fontColor=#666666;align=left;" vertex="1" parent="127">
                    <mxGeometry x="60" y="12" width="110" height="26" as="geometry"/>
                </mxCell>
                <mxCell id="129" value="https://www.draw.io" style="strokeWidth=1;shadow=0;dashed=0;align=center;html=1;shape=mxgraph.mockup.containers.anchor;rSize=0;fontSize=17;fontColor=#666666;align=left;" vertex="1" parent="127">
                    <mxGeometry x="130" y="60" width="250" height="26" as="geometry"/>
                </mxCell>
                <mxCell id="151" value="&lt;font&gt;&lt;font style=&quot;font-size: 28px&quot;&gt;Team C&lt;/font&gt;&lt;br&gt;&lt;/font&gt;" style="text;html=1;fillColor=none;align=center;verticalAlign=middle;whiteSpace=wrap;rounded=0;labelBackgroundColor=none;fontColor=#000000;strokeColor=#f0f0f0;strokeWidth=4;" vertex="1" parent="127">
                    <mxGeometry x="100" y="170" width="100" height="100" as="geometry"/>
                </mxCell>
                <mxCell id="133" value="&lt;font&gt;&lt;font style=&quot;font-size: 28px&quot;&gt;垂直分割&lt;/font&gt;&lt;br&gt;&lt;/font&gt;" style="text;html=1;strokeColor=none;fillColor=none;align=center;verticalAlign=middle;whiteSpace=wrap;rounded=0;dashed=1;labelBackgroundColor=none;fontColor=#000000;" vertex="1" parent="1">
                    <mxGeometry x="1338.75" y="500" width="162.5" height="50" as="geometry"/>
                </mxCell>
                <mxCell id="152" value="" style="rounded=0;whiteSpace=wrap;html=1;dashed=1;labelBackgroundColor=none;fontColor=#000000;fillColor=none;strokeWidth=4;" vertex="1" parent="1">
                    <mxGeometry x="880" y="560" width="1080" height="440" as="geometry"/>
                </mxCell>
                <mxCell id="153" style="edgeStyle=orthogonalEdgeStyle;rounded=0;orthogonalLoop=1;jettySize=auto;html=1;fontColor=#000000;" edge="1" parent="1" source="154" target="159">
                    <mxGeometry relative="1" as="geometry"/>
                </mxCell>
                <mxCell id="154" value="" style="strokeWidth=1;shadow=0;dashed=0;align=center;html=1;shape=mxgraph.mockup.containers.browserWindow;rSize=0;strokeColor=#666666;strokeColor2=#008cff;strokeColor3=#c4c4c4;mainText=,;recursiveResize=0;labelBackgroundColor=#FFFFFF;fontColor=#000000;" vertex="1" parent="1">
                    <mxGeometry x="920" y="600" width="300" height="330" as="geometry"/>
                </mxCell>
                <mxCell id="155" value="Page A" style="strokeWidth=1;shadow=0;dashed=0;align=center;html=1;shape=mxgraph.mockup.containers.anchor;fontSize=17;fontColor=#666666;align=left;" vertex="1" parent="154">
                    <mxGeometry x="60" y="12" width="110" height="26" as="geometry"/>
                </mxCell>
                <mxCell id="156" value="https://www.draw.io" style="strokeWidth=1;shadow=0;dashed=0;align=center;html=1;shape=mxgraph.mockup.containers.anchor;rSize=0;fontSize=17;fontColor=#666666;align=left;" vertex="1" parent="154">
                    <mxGeometry x="130" y="60" width="250" height="26" as="geometry"/>
                </mxCell>
                <mxCell id="177" value="&lt;font&gt;&lt;font style=&quot;font-size: 28px&quot;&gt;Team A&lt;/font&gt;&lt;br&gt;&lt;/font&gt;" style="text;html=1;fillColor=none;align=center;verticalAlign=middle;whiteSpace=wrap;rounded=0;labelBackgroundColor=none;fontColor=#000000;strokeColor=#f0f0f0;strokeWidth=4;" vertex="1" parent="154">
                    <mxGeometry y="220" width="100" height="100" as="geometry"/>
                </mxCell>
                <mxCell id="178" value="&lt;font&gt;&lt;font style=&quot;font-size: 28px&quot;&gt;Team C&lt;/font&gt;&lt;br&gt;&lt;/font&gt;" style="text;html=1;fillColor=none;align=center;verticalAlign=middle;whiteSpace=wrap;rounded=0;labelBackgroundColor=none;fontColor=#000000;strokeColor=#f0f0f0;strokeWidth=4;" vertex="1" parent="154">
                    <mxGeometry x="200" y="220" width="100" height="100" as="geometry"/>
                </mxCell>
                <mxCell id="179" value="&lt;font&gt;&lt;font style=&quot;font-size: 28px&quot;&gt;Team B&lt;/font&gt;&lt;br&gt;&lt;/font&gt;" style="text;html=1;fillColor=none;align=center;verticalAlign=middle;whiteSpace=wrap;rounded=0;labelBackgroundColor=none;fontColor=#000000;strokeColor=#f0f0f0;strokeWidth=4;" vertex="1" parent="154">
                    <mxGeometry x="100" y="120" width="100" height="100" as="geometry"/>
                </mxCell>
                <mxCell id="158" style="edgeStyle=orthogonalEdgeStyle;rounded=0;orthogonalLoop=1;jettySize=auto;html=1;fontColor=#000000;" edge="1" parent="1" source="159" target="163">
                    <mxGeometry relative="1" as="geometry"/>
                </mxCell>
                <mxCell id="159" value="" style="strokeWidth=1;shadow=0;dashed=0;align=center;html=1;shape=mxgraph.mockup.containers.browserWindow;rSize=0;strokeColor=#666666;strokeColor2=#008cff;strokeColor3=#c4c4c4;mainText=,;recursiveResize=0;labelBackgroundColor=#FFFFFF;fontColor=#000000;" vertex="1" parent="1">
                    <mxGeometry x="1270" y="600" width="300" height="330" as="geometry"/>
                </mxCell>
                <mxCell id="160" value="Page B" style="strokeWidth=1;shadow=0;dashed=0;align=center;html=1;shape=mxgraph.mockup.containers.anchor;fontSize=17;fontColor=#666666;align=left;" vertex="1" parent="159">
                    <mxGeometry x="60" y="12" width="110" height="26" as="geometry"/>
                </mxCell>
                <mxCell id="161" value="https://www.draw.io" style="strokeWidth=1;shadow=0;dashed=0;align=center;html=1;shape=mxgraph.mockup.containers.anchor;rSize=0;fontSize=17;fontColor=#666666;align=left;" vertex="1" parent="159">
                    <mxGeometry x="130" y="60" width="250" height="26" as="geometry"/>
                </mxCell>
                <mxCell id="174" value="&lt;font&gt;&lt;font style=&quot;font-size: 28px&quot;&gt;Team A&lt;/font&gt;&lt;br&gt;&lt;/font&gt;" style="text;html=1;fillColor=none;align=center;verticalAlign=middle;whiteSpace=wrap;rounded=0;labelBackgroundColor=none;fontColor=#000000;strokeColor=#f0f0f0;strokeWidth=4;" vertex="1" parent="159">
                    <mxGeometry y="220" width="100" height="100" as="geometry"/>
                </mxCell>
                <mxCell id="175" value="&lt;font&gt;&lt;font style=&quot;font-size: 28px&quot;&gt;Team C&lt;/font&gt;&lt;br&gt;&lt;/font&gt;" style="text;html=1;fillColor=none;align=center;verticalAlign=middle;whiteSpace=wrap;rounded=0;labelBackgroundColor=none;fontColor=#000000;strokeColor=#f0f0f0;strokeWidth=4;" vertex="1" parent="159">
                    <mxGeometry x="200" y="220" width="100" height="100" as="geometry"/>
                </mxCell>
                <mxCell id="176" value="&lt;font&gt;&lt;font style=&quot;font-size: 28px&quot;&gt;Team B&lt;/font&gt;&lt;br&gt;&lt;/font&gt;" style="text;html=1;fillColor=none;align=center;verticalAlign=middle;whiteSpace=wrap;rounded=0;labelBackgroundColor=none;fontColor=#000000;strokeColor=#f0f0f0;strokeWidth=4;" vertex="1" parent="159">
                    <mxGeometry x="100" y="120" width="100" height="100" as="geometry"/>
                </mxCell>
                <mxCell id="163" value="" style="strokeWidth=1;shadow=0;dashed=0;align=center;html=1;shape=mxgraph.mockup.containers.browserWindow;rSize=0;strokeColor=#666666;strokeColor2=#008cff;strokeColor3=#c4c4c4;mainText=,;recursiveResize=0;labelBackgroundColor=#FFFFFF;fontColor=#000000;" vertex="1" parent="1">
                    <mxGeometry x="1620" y="600" width="300" height="330" as="geometry"/>
                </mxCell>
                <mxCell id="164" value="Page C" style="strokeWidth=1;shadow=0;dashed=0;align=center;html=1;shape=mxgraph.mockup.containers.anchor;fontSize=17;fontColor=#666666;align=left;" vertex="1" parent="163">
                    <mxGeometry x="60" y="12" width="110" height="26" as="geometry"/>
                </mxCell>
                <mxCell id="165" value="https://www.draw.io" style="strokeWidth=1;shadow=0;dashed=0;align=center;html=1;shape=mxgraph.mockup.containers.anchor;rSize=0;fontSize=17;fontColor=#666666;align=left;" vertex="1" parent="163">
                    <mxGeometry x="130" y="60" width="250" height="26" as="geometry"/>
                </mxCell>
                <mxCell id="180" value="&lt;font&gt;&lt;font style=&quot;font-size: 28px&quot;&gt;Team A&lt;/font&gt;&lt;br&gt;&lt;/font&gt;" style="text;html=1;fillColor=none;align=center;verticalAlign=middle;whiteSpace=wrap;rounded=0;labelBackgroundColor=none;fontColor=#000000;strokeColor=#f0f0f0;strokeWidth=4;" vertex="1" parent="163">
                    <mxGeometry y="220" width="100" height="100" as="geometry"/>
                </mxCell>
                <mxCell id="181" value="&lt;font&gt;&lt;font style=&quot;font-size: 28px&quot;&gt;Team C&lt;/font&gt;&lt;br&gt;&lt;/font&gt;" style="text;html=1;fillColor=none;align=center;verticalAlign=middle;whiteSpace=wrap;rounded=0;labelBackgroundColor=none;fontColor=#000000;strokeColor=#f0f0f0;strokeWidth=4;" vertex="1" parent="163">
                    <mxGeometry x="200" y="220" width="100" height="100" as="geometry"/>
                </mxCell>
                <mxCell id="182" value="&lt;font&gt;&lt;font style=&quot;font-size: 28px&quot;&gt;Team B&lt;/font&gt;&lt;br&gt;&lt;/font&gt;" style="text;html=1;fillColor=none;align=center;verticalAlign=middle;whiteSpace=wrap;rounded=0;labelBackgroundColor=none;fontColor=#000000;strokeColor=#f0f0f0;strokeWidth=4;" vertex="1" parent="163">
                    <mxGeometry x="100" y="120" width="100" height="100" as="geometry"/>
                </mxCell>
                <mxCell id="167" value="&lt;font&gt;&lt;font style=&quot;font-size: 28px&quot;&gt;水平分割&lt;/font&gt;&lt;br&gt;&lt;/font&gt;" style="text;html=1;strokeColor=none;fillColor=none;align=center;verticalAlign=middle;whiteSpace=wrap;rounded=0;dashed=1;labelBackgroundColor=none;fontColor=#000000;" vertex="1" parent="1">
                    <mxGeometry x="1338.75" y="1020" width="162.5" height="50" as="geometry"/>
                </mxCell>
            </root>
        </mxGraphModel>
    </diagram>
</mxfile>